<svg id="Layer_1" data-name="Layer 1" xmlns="http://www.w3.org/2000/svg" viewBox="0 0 652.73 655.7"><defs><style>.cls-1{fill:#fff;}.cls-2{fill:#f9ead8;}.cls-3{fill:#bd5f71;}.cls-4{fill:#ebbe79;}.cls-5{fill:#f3d5ae;}.cls-6{fill:#606063;}.cls-7{fill:#df7b76;}.cls-8{fill:#87b8c9;}.cls-9{fill:#87b8c8;}.cls-10{fill:#6295cd;}.cls-11{fill:#ca6f6b;}.cls-12{fill:#ac5768;}.cls-13{fill:#c06776;}.cls-14{fill:#c06675;}.cls-15{fill:#87b7c8;}.cls-16{fill:#f6e3d4;}</style></defs><path class="cls-1" d="M3.71,330q0-162.23-.07-324.44c0-2.78.62-3.41,3.4-3.41q323,.12,645.92,0c2.78,0,3.4.63,3.4,3.41q-.11,324.44,0,648.88c0,2.78-.62,3.41-3.4,3.41q-323-.12-645.92,0c-2.78,0-3.41-.63-3.4-3.41Q3.76,492.23,3.71,330ZM163.83,609.63c12.35,8,25.58,14.18,39,19.92,11,4.68,22.07,9,33.66,11.91A237.47,237.47,0,0,0,281,651.34c8.45,1.91,17.08,2.47,25.68,3.09a309.44,309.44,0,0,0,70.2-2.64c1.69-.21,3.4-.36,5.09-.65,13.53-2.31,27-4.9,40.06-9.3,1.67-.41,3.37-.73,5-1.24a302.39,302.39,0,0,0,38.29-14.66c10-4.71,20.14-9.27,29.33-15.58a15.51,15.51,0,0,0,2.38-.94,326.14,326.14,0,0,0,52.46-39c20.65-19.07,39.07-40.11,54.16-63.93.87-1.38,1.7-2.72,1.52-4.43,1.9,0,2.36-1.73,3-2.91,3.61-6.16,7.25-12.32,10.56-18.65a328.48,328.48,0,0,0,24.81-62.39,302.19,302.19,0,0,0,11.78-71.78c.8-20.9.47-41.85-2.74-62.65a353.4,353.4,0,0,0-12.33-53.81,332.94,332.94,0,0,0-25.8-59.23,307.37,307.37,0,0,0-42.71-59.57,332.17,332.17,0,0,0-53.76-47.82A323.66,323.66,0,0,0,293.58,5.79,323.54,323.54,0,0,0,94.93,104.05a365.13,365.13,0,0,0-26.35,30.86,310.12,310.12,0,0,0-31.35,51.21,323.06,323.06,0,0,0-24.49,68.73c-4.3,18.46-7.49,37.12-8.1,56-.56,17.34-.82,34.74,1.16,52.1a360.21,360.21,0,0,0,6.4,38.82,317.68,317.68,0,0,0,30.22,81.13c3,5.49,5.37,11.37,9.58,16.15a13.61,13.61,0,0,0,.81,2,296.35,296.35,0,0,0,36.3,48c13.26,14.32,27.36,27.81,43.06,39.48C142.36,596.14,152.59,603.65,163.83,609.63Z" transform="translate(-3.64 -2.15)"/><path class="cls-2" d="M52,499.07c-4.21-4.78-6.62-10.66-9.58-16.15A317.68,317.68,0,0,1,12.2,401.79,360.21,360.21,0,0,1,5.8,363c-2-17.36-1.72-34.76-1.16-52.1.61-18.9,3.8-37.56,8.1-56a323.06,323.06,0,0,1,24.49-68.73,310.12,310.12,0,0,1,31.35-51.21,365.13,365.13,0,0,1,26.35-30.86A327.75,327.75,0,0,1,340.39,3.78a325,325,0,0,1,177.66,59.5,332.17,332.17,0,0,1,53.76,47.82,307.37,307.37,0,0,1,42.71,59.57,332.94,332.94,0,0,1,25.8,59.23,353.4,353.4,0,0,1,12.33,53.81c3.21,20.8,3.54,41.75,2.74,62.65a302.19,302.19,0,0,1-11.78,71.78,328.48,328.48,0,0,1-24.81,62.39c-3.31,6.33-6.95,12.49-10.56,18.65-.69,1.18-1.15,2.88-3,2.91-.59-18.82.82-37.66-.82-56.46a21.48,21.48,0,0,1,2.15-1.41c5.92-3.05,9-7.9,9.1-14.55.14-6.83-3-11.75-8.87-15.1a22,22,0,0,1-2.06-1.53q.06-16.68.1-33.35c1.22-.83,2.43-1.65,3.64-2.49a16.54,16.54,0,0,0,6.89-17.83c-1.61-6.67-5.83-11-12.73-12.33-2-.4-4.13-.58-6.19-.86-.53-1.37-1-2.8-1.61-4.11q-9.06-18.21-18.18-36.4Q564.28,281,551.93,256.41c-.5-1-.93-2.34-2.06-2.46-1.6-.17-1.68,1.58-2.18,2.58q-18,35.76-35.79,71.59c-3,6-6.45,11.68-8.57,18-8,0-14.43,2.87-18.47,10.12-1.72-.07-3.44-.2-5.16-.2q-28.47,0-56.94,0c0-8.64-.16-17.28-.05-25.91,0-2.72-.45-4-3.61-3.86-11.46.42-22.93.59-34.39.72-2.3,0-2.95.85-2.94,3.05.05,8.63-.06,17.27-.11,25.9l-33.57,0c-.1-8.51-.29-17-.26-25.52,0-2.56-.73-3.44-3.36-3.35q-14.78.53-29.56.69c-2.39,0-2.81,1.08-2.85,3.16-.16,8.37-.46,16.74-.71,25.11L280.59,356c0-8.52-.18-17-.08-25.56,0-2.58-.76-3.37-3.36-3.39q-19.25-.17-38.49-.7c-2.93-.08-3.81.78-3.76,3.73.14,8.64,0,17.28-.07,25.92-2.34,0-4.69.11-7,.11q-27.54.07-55.1.12c-3.59-6.45-9.13-9.59-16.45-9.78-1.58,0-3.16-.19-4.75-.29a11,11,0,0,0-1.52-4.52c-7.28-13.89-13.93-28.1-21.16-42-7.35-14.13-13.77-28.72-21.5-42.65-.62-1.11-.7-3.11-2.3-3-1.35.11-1.59,2-2.41,3.08a3.46,3.46,0,0,0-.28.68Q88,286.55,73.66,315.35c-5.13,10.25-10.82,20.23-15.23,30.84-1.41.4-2.84.79-4.24,1.22a16.51,16.51,0,0,0-7,27.21c1.71,1.75,3.72,3.2,5.6,4.79q0,16.83.1,33.66c-.72,1.39-2.15,2-3.31,2.85a16.63,16.63,0,0,0,1,27.52c.92.59,2,1,2.18,2.28q0,24.73-.07,49.47C52.62,496.49,53.09,497.92,52,499.07ZM337.61,202c0,10.62.15,21.24-.09,31.86-.07,3.48,1.69,3.34,4.1,3.38s4.17-.16,4-3.5c-.28-5.79-.11-11.6,0-17.41,0-1.15-.66-2.75.68-3.37,1.16-.54,1.81,1,2.64,1.62,9.8,7.43,21.7,5,27.06-6.08,5.49-11.33,5.35-22.92-.23-34.25A15.9,15.9,0,0,0,359,165.77a23,23,0,0,0-11.15,4.61c-1.19,1-2.26,1.57-2.29-.7-.07-4.81-3.67-2.36-5.72-2.69-2.86-.46-2.24,1.92-2.24,3.52C337.59,181,337.61,191.51,337.61,202Zm-27.23,8.2c-.45,5.76,1.36,8,6.23,7.24,2-.33,2.82-.58,2.36-2.86a65.42,65.42,0,0,1-.94-13.27c0-6.66.15-13.34-.13-20-.4-9.38-5-14.46-14.16-15.52-7.32-.84-14.19,1.16-20.74,4.31-3,1.45-.51,3.37-.26,5,.32,2.05,1.66,1.64,3.05,1a36,36,0,0,1,10.57-3.23c6.56-1,11.36,2.19,13,8.62,1.39,5.34.94,6-4.63,6.22s-11.33.89-16.64,3.09a14.53,14.53,0,0,0-8.85,16.52c1.63,7.46,7.21,11.59,15.06,11.36C300.51,218.51,305.4,215.76,310.38,210.21Zm235.27.51a31.57,31.57,0,0,0,.64,4.57c1.17,3.81,4.34,1.72,6.6,2,2.48.29,1.84-1.86,1.61-3.16-1.13-6.14-.59-12.32-.75-18.49-.15-5.91.47-11.86-.73-17.74-1.34-6.54-5.28-10.44-11.77-11.71-7.91-1.53-15.14.65-22.25,3.8-3.1,1.37-1,3.24-.63,4.91.52,2.21,2.06,1.67,3.49,1a39.57,39.57,0,0,1,9.88-3.06c6.82-1,11.74,2.13,13.22,8.34,1.3,5.47.67,6.25-4.94,6.56-6,.34-12.12.79-17.6,3.71a14.32,14.32,0,0,0-7.3,17.25c1.88,6.28,7.81,10.18,14.82,10C536.1,218.49,541,215.81,545.65,210.72Zm-119.06.76a2.32,2.32,0,0,1,.68,2.37c-.6,3.74,1.65,3.75,4.42,3.86,3.18.14,3.61-1.31,3.59-4-.1-14.45-.15-28.91,0-43.36,0-3.29-1.4-3.57-4-3.51-2.41.06-4.21-.08-4.11,3.39.25,8.76-.41,17.58.25,26.3.45,6-2.18,9.23-6.73,11.87a27.47,27.47,0,0,1-3.63,1.84c-6.61,2.61-11.71-.46-12.4-7.5-.21-2.09-.16-4.2-.17-6.3,0-8.89-.08-17.79,0-26.68,0-3.46-2.26-2.94-4.29-2.84-1.73.09-4.15-1-4.12,2.47.11,11.74-.19,23.48.19,35.21.33,10.13,7.18,15.32,17.23,13.78C418.66,217.62,422.7,214.86,426.59,211.48Zm40-19.91h.06c0,4.94-.15,9.88,0,14.81.3,7.7,4.86,12,12.47,12.23a43.5,43.5,0,0,0,13.09-2.05c4.05-1.12,2.82-3.51,2.16-6-.9-3.44-2.86-.9-4.34-.71-1.82.23-3.6.9-5.42,1-7.18.53-10-1.9-10.16-9.19-.19-8.27,0-16.55-.09-24.82,0-2.32.91-3,3.08-2.93,3.58.11,7.17-.12,10.74.07,2.8.15,3.28-1.18,3.24-3.57,0-2.23-.11-3.81-3.09-3.61-3.44.25-6.92-.09-10.37.1-2.68.16-3.87-.6-3.62-3.48.23-2.57,0-5.18.06-7.77,0-1.83-.67-2.61-2.59-2.74-5.11-.34-5.25-.29-5.26,4.7,0,1,0,2,0,3,0,6.17,0,6.32-6.26,6.21-2.83,0-3.54.91-3.55,3.62s1,3.83,3.7,3.54c1-.1,2,.08,3,0,2.42-.27,3.26.74,3.18,3.16C466.52,181.93,466.62,186.75,466.62,191.57Zm-244.54-8.5c0,10.25.07,20.5,0,30.75,0,2.75.92,3.64,3.66,3.6,10.25-.13,20.51-.15,30.76,0,2.91,0,3.55-1.13,3.52-3.72s-.35-3.94-3.4-3.87c-7.29.18-14.58-.08-21.86.13-3.25.09-4.26-.92-4.23-4.2.14-17.67,0-35.33.14-53,0-3.08-1-3.86-3.83-3.65-2.45.18-4.89-.5-4.79,3.55C222.24,162.8,222.08,172.94,222.08,183.07Zm-117.17,19.8c0,4.23.37,4.52,3.94,2.4,9.87-5.85,19.66-11.83,29.5-17.74,4.56-2.73,4.74-7.12.34-10-1.44-1-2.95-1.81-4.43-2.7-8.8-5.23-17.63-10.43-26.4-15.7-2-1.21-2.83-.88-3,1.55-.18,2.9.31,4.92,3.28,6.58,7.63,4.28,15,9.12,22.46,13.62,2.33,1.4,2.48,2.2,0,3.64-7.59,4.37-15,9-22.6,13.39C105.89,199.11,104.41,200.51,104.91,202.87ZM181,238.76c8.76,0,17.53-.08,26.29.05,2.55,0,3.49-.69,3.43-3.33-.06-2.49-.42-3.86-3.42-3.84q-26.28.17-52.58,0c-3,0-3.37,1.33-3.43,3.82s.85,3.39,3.41,3.35C163.43,238.67,172.19,238.76,181,238.76Z" transform="translate(-3.64 -2.15)"/><path class="cls-3" d="M422,641.84c-13.05,4.4-26.53,7-40.06,9.3-1.69.29-3.4.44-5.1.65-.3-22.1-1-44.21-.78-66.31.27-25.89-20.84-46.13-46.34-46.15a46.49,46.49,0,0,0-30.25,11.1c-11.74,9.66-17.88,21.76-17.74,37,.05,6.26.42,12.51.2,18.79-.52,15.05-.67,30.11-1,45.17a237.47,237.47,0,0,1-44.48-9.88c-.48-3.4-1.38-6.8-1.39-10.21q-.06-62,.09-124c.08-.09.24-.2.22-.25a3,3,0,0,0-.31-.55c0-.71,0-1.42,0-2.13,1.67-.21,1.56-1.76,1.94-2.8,4.27-11.78,13.6-18.52,26.17-18.81,1.85,10.55,7.29,16.32,16.39,16.36q49.59.21,99.16,0c7.76,0,13.67-5.05,15.51-12.44.32-1.3.54-2.63.81-3.94a27,27,0,0,1,22.53,11.54c1.71,2.33,2.09,5.54,4.78,7.16.47,7.87,1.05,15.72,1,23.62-.12,24.8.06,49.6-.08,74.4C423.3,613.56,424.33,627.76,422,641.84Z" transform="translate(-3.64 -2.15)"/><path class="cls-4" d="M422,641.84c2.29-14.08,1.26-28.28,1.34-42.42.14-24.8,0-49.6.08-74.4,0-7.9-.54-15.75-1-23.62.07-1.72.21-3.44.22-5.16q0-70.1.08-140.18,28.47,0,56.94,0c1.72,0,3.44.13,5.16.19-.55,3.15-1.47,6.2-.95,9.51,1,6.62,5.2,10.68,10.67,13.79q0,16.74,0,33.48c-1.58,1.17-3.2,2.29-4.74,3.5-8.95,7.05-7.75,21.71,2.19,27.12,1,.52,2.1.8,2.61,1.94,0,8.27,0,16.54,0,24.8q0,70,.07,140c-9.19,6.31-19.31,10.87-29.33,15.58a302.39,302.39,0,0,1-38.29,14.66C425.41,641.11,423.71,641.43,422,641.84Z" transform="translate(-3.64 -2.15)"/><path class="cls-4" d="M235.23,507.26q-.07,62-.09,124c0,3.41.91,6.81,1.39,10.21-11.59-2.92-22.7-7.23-33.66-11.91-13.46-5.74-26.69-12-39-19.92V445.87c.09-1.54,1.42-1.84,2.42-2.5A16.78,16.78,0,0,0,169,417.64c-1.63-1.69-4-2.51-5.21-4.63l0-33.67c8.86-5.45,12-13.11,9-23.16q27.56-.06,55.1-.12c2.34,0,4.69-.07,7-.11.06,1.35.18,2.7.18,4.06q0,47.37,0,94.74c0,16.53.09,33.06.14,49.58,0,.71,0,1.42,0,2.13Z" transform="translate(-3.64 -2.15)"/><path class="cls-5" d="M494.67,610.36q0-70-.07-139.95c0-8.26,0-16.53,0-24.8l109.74,0c1.64,18.8.23,37.64.82,56.46.18,1.71-.65,3.05-1.52,4.43-15.09,23.82-33.51,44.86-54.16,63.93a326.14,326.14,0,0,1-52.46,39A15.51,15.51,0,0,1,494.67,610.36Z" transform="translate(-3.64 -2.15)"/><path class="cls-5" d="M163.83,445.87V609.63c-11.24-6-21.47-13.49-31.66-21.07-15.7-11.67-29.8-25.16-43.06-39.48a296.35,296.35,0,0,1-36.3-48,13.61,13.61,0,0,1-.81-2c1.09-1.15.62-2.58.63-3.88q.06-24.74.07-49.47c1.48,0,3,.08,4.44.08Z" transform="translate(-3.64 -2.15)"/><path class="cls-6" d="M281,651.34c.29-15.06.44-30.12,1-45.17.22-6.28-.15-12.53-.2-18.79-.14-15.19,6-27.29,17.74-37a46.49,46.49,0,0,1,30.25-11.1c25.5,0,46.61,20.26,46.34,46.15-.24,22.1.48,44.21.78,66.31a309.33,309.33,0,0,1-70.19,2.64C298.09,653.81,289.46,653.25,281,651.34Z" transform="translate(-3.64 -2.15)"/><path class="cls-7" d="M235.16,504.33c0-16.52-.13-33.05-.14-49.58q0-47.37,0-94.74c0-1.36-.12-2.71-.18-4.06,0-8.64.21-17.28.07-25.92-.05-2.95.83-3.81,3.76-3.73q19.25.56,38.49.7c2.6,0,3.39.81,3.36,3.39-.1,8.52,0,17,.08,25.55-.07,6.15-.09,12.3-.23,18.44-.05,2.26.93,3,3.1,3,8.24-.06,16.49-.08,24.73,0,2.42,0,3.26-1,3.22-3.3-.1-6-.05-12.06-.06-18.09.25-8.37.55-16.74.71-25.11,0-2.08.46-3.13,2.85-3.16q14.79-.17,29.56-.69c2.63-.09,3.37.79,3.36,3.35,0,8.51.16,17,.26,25.52-.8,7.52,1,15,.46,22.52-.11,1.71,1.05,1.94,2.43,2q13.88.33,27.73.73c2.14.06,3.21-.67,3.17-3-.13-7.41-.15-14.81-.22-22.22,0-8.63.16-17.27.11-25.9,0-2.2.64-3,2.94-3.05,11.46-.13,22.93-.3,34.39-.72,3.16-.11,3.64,1.14,3.61,3.86-.11,8.63,0,17.27.05,25.91q0,70.1-.08,140.18c0,1.72-.15,3.44-.22,5.16-2.7-1.62-3.08-4.83-4.79-7.16a27,27,0,0,0-22.53-11.54,32,32,0,0,0-1.47-6.82c-3.16-8-9.71-10.52-17.57-11-3.14-6.42-6.22-12.87-9.41-19.26q-18.18-36.43-36.43-72.82c-.52-1-.68-2.77-2.15-2.69s-1.55,1.76-2.08,2.82c-10.21,20.54-20.34,41.12-30.59,61.65-5,10-10.62,19.78-14.77,30.23-12.61,3.31-16.18,7-17.4,17.87-12.57.29-21.9,7-26.17,18.81C236.72,502.57,236.83,504.12,235.16,504.33Z" transform="translate(-3.64 -2.15)"/><path class="cls-8" d="M58.43,346.19c4.41-10.61,10.1-20.59,15.23-30.84q14.41-28.77,28.67-57.63a3.46,3.46,0,0,1,.28-.68c.82-1.06,1.06-3,2.41-3.08,1.6-.14,1.68,1.86,2.3,3,7.73,13.93,14.15,28.52,21.5,42.65,7.23,13.91,13.88,28.12,21.16,42a11,11,0,0,1,1.52,4.52c-10,.07-19.94.2-29.91.2Q90,346.3,58.43,346.19Z" transform="translate(-3.64 -2.15)"/><path class="cls-9" d="M503.33,346.16c2.12-6.36,5.61-12.08,8.57-18q17.79-35.85,35.79-71.59c.5-1,.58-2.75,2.18-2.58,1.13.12,1.56,1.46,2.06,2.46q12.33,24.63,24.68,49.26,9.1,18.19,18.18,36.4c.65,1.31,1.08,2.74,1.61,4.11q-30.84.07-61.68.13C524.26,346.32,513.79,346.21,503.33,346.16Z" transform="translate(-3.64 -2.15)"/><path class="cls-10" d="M503.33,346.16c10.46,0,20.93.16,31.39.15q30.84,0,61.68-.13c2.06.28,4.15.46,6.19.86,6.9,1.34,11.12,5.66,12.73,12.33a16.54,16.54,0,0,1-6.89,17.83l-3.64,2.5c-7.11,1-14.27.67-21.41.67q-36.66,0-73.31,0c-5.18,0-10.37.22-15.49-.81-5.47-3.11-9.64-7.17-10.67-13.79-.52-3.31.4-6.36.95-9.51C488.9,349,495.35,346.21,503.33,346.16Z" transform="translate(-3.64 -2.15)"/><path class="cls-10" d="M58.43,346.19q31.58.06,63.16.12c10,0,19.94-.13,29.91-.2,1.59.1,3.17.25,4.75.29,7.32.19,12.86,3.33,16.45,9.78,3,10.05-.12,17.71-9,23.16a53,53,0,0,1-12.51,1.06q-41.31,0-82.62,0c-5.3,0-10.62.24-15.85-1-1.88-1.59-3.89-3-5.6-4.79a16.51,16.51,0,0,1,7-27.21C55.59,347,57,346.59,58.43,346.19Z" transform="translate(-3.64 -2.15)"/><path class="cls-11" d="M604.37,445.63l-109.74,0c-.51-1.14-1.65-1.42-2.61-1.94-9.94-5.41-11.14-20.07-2.19-27.12,1.54-1.21,3.16-2.33,4.74-3.5,6.85-.92,13.75-.78,20.64-.7,29.82.35,59.66-.85,89.48.69a22,22,0,0,0,2.06,1.53c5.83,3.35,9,8.27,8.87,15.1-.13,6.65-3.18,11.5-9.1,14.55A21.48,21.48,0,0,0,604.37,445.63Z" transform="translate(-3.64 -2.15)"/><path class="cls-11" d="M163.83,445.87,57.14,445.8c-1.48,0-3-.05-4.44-.08-.15-1.31-1.26-1.69-2.18-2.28a16.63,16.63,0,0,1-1-27.52c1.16-.88,2.59-1.46,3.31-2.85a192.55,192.55,0,0,1,21.75-.74c29.72.38,59.45-.79,89.16.68,1.22,2.12,3.58,2.94,5.21,4.63a16.78,16.78,0,0,1-2.71,25.73C165.25,444,163.92,444.33,163.83,445.87Z" transform="translate(-3.64 -2.15)"/><path class="cls-12" d="M163.75,413c-29.71-1.47-59.44-.3-89.16-.68a192.55,192.55,0,0,0-21.75.74q-.06-16.83-.1-33.66c5.23,1.21,10.55,1,15.85,1q41.31,0,82.62,0a53,53,0,0,0,12.51-1.06Z" transform="translate(-3.64 -2.15)"/><path class="cls-12" d="M604.69,413c-29.82-1.54-59.66-.34-89.48-.69-6.89-.08-13.79-.22-20.64.7q0-16.74,0-33.48c5.12,1,10.31.81,15.49.81q36.65,0,73.31,0c7.14,0,14.3.34,21.41-.67Q604.75,396.37,604.69,413Z" transform="translate(-3.64 -2.15)"/><path class="cls-13" d="M337.61,202c0-10.5,0-21,0-31.5,0-1.6-.62-4,2.24-3.52,2.05.33,5.65-2.12,5.72,2.69,0,2.27,1.1,1.65,2.29.7A23,23,0,0,1,359,165.77a15.9,15.9,0,0,1,16.71,8.49c5.58,11.33,5.72,22.92.23,34.25-5.36,11-17.26,13.51-27.06,6.08-.83-.64-1.48-2.16-2.64-1.62-1.34.62-.67,2.22-.68,3.37-.07,5.81-.24,11.62,0,17.41.16,3.34-1.46,3.54-4,3.5s-4.17.1-4.1-3.38C337.76,223.25,337.61,212.63,337.61,202Zm7.93-10.64a38.56,38.56,0,0,1,0,4.81c-.77,5.8,2.22,9.59,6.58,12.68,5.18,3.66,10.22,3.09,14.52-1.62,6.24-6.84,6.72-21.18,1-29.47-3.62-5.23-9.18-6.69-14.54-3.53-4.75,2.8-8.51,6.36-7.54,12.69A29.88,29.88,0,0,1,345.54,191.37Z" transform="translate(-3.64 -2.15)"/><path class="cls-14" d="M310.38,210.21c-5,5.55-9.87,8.3-16,8.47-7.85.23-13.43-3.9-15.06-11.36a14.53,14.53,0,0,1,8.85-16.52c5.31-2.2,10.94-2.85,16.64-3.09s6-.88,4.63-6.22c-1.68-6.43-6.48-9.6-13-8.62a36,36,0,0,0-10.57,3.23c-1.39.68-2.73,1.09-3.05-1-.25-1.65-2.77-3.57.26-5,6.55-3.15,13.42-5.15,20.74-4.31,9.14,1.06,13.76,6.14,14.16,15.52.28,6.65.16,13.33.13,20a65.42,65.42,0,0,0,.94,13.27c.46,2.28-.34,2.53-2.36,2.86C311.74,218.26,309.93,216,310.38,210.21ZM310,197.86c-.8-1,1.26-4.19-1.52-4.06-6.44.32-13.21.23-18.64,4.64-4.12,3.35-3.17,9.15,1.71,11.49C298.5,213.24,310,206,310,197.86Z" transform="translate(-3.64 -2.15)"/><path class="cls-14" d="M545.65,210.72c-4.62,5.09-9.55,7.77-15.71,8-7,.21-12.94-3.69-14.82-10a14.32,14.32,0,0,1,7.3-17.25c5.48-2.92,11.55-3.37,17.6-3.71,5.61-.31,6.24-1.09,4.94-6.56-1.48-6.21-6.4-9.34-13.22-8.34a39.57,39.57,0,0,0-9.88,3.06c-1.43.63-3,1.17-3.49-1-.39-1.67-2.47-3.54.63-4.91,7.11-3.15,14.34-5.33,22.25-3.8,6.49,1.27,10.43,5.17,11.77,11.71,1.2,5.88.58,11.83.73,17.74.16,6.17-.38,12.35.75,18.49.23,1.3.87,3.45-1.61,3.16-2.26-.25-5.43,1.84-6.6-2A31.57,31.57,0,0,1,545.65,210.72Zm0-12.24c0-5.18-.12-5.27-5.13-4.51-1.21.18-2.44.25-3.66.38-3.84.4-7.55,1.21-10.7,3.57-4.53,3.39-4.18,9.23.65,11.8C533.79,213.42,545.65,206.34,545.66,198.48Z" transform="translate(-3.64 -2.15)"/><path class="cls-13" d="M426.59,211.48c-3.89,3.38-7.93,6.14-13,6.91-10.05,1.54-16.9-3.65-17.23-13.78-.38-11.73-.08-23.47-.19-35.21,0-3.47,2.39-2.38,4.12-2.47,2-.1,4.33-.62,4.29,2.84-.11,8.89,0,17.79,0,26.68,0,2.1,0,4.21.17,6.3.69,7,5.79,10.11,12.4,7.5a27.47,27.47,0,0,0,3.63-1.84c4.55-2.64,7.18-5.9,6.73-11.87-.66-8.72,0-17.54-.25-26.3-.1-3.47,1.7-3.33,4.11-3.39,2.58-.06,4,.22,4,3.51-.18,14.45-.13,28.91,0,43.36,0,2.68-.41,4.13-3.59,4-2.77-.11-5-.12-4.42-3.86A2.32,2.32,0,0,0,426.59,211.48Z" transform="translate(-3.64 -2.15)"/><path class="cls-13" d="M466.62,191.57c0-4.82-.1-9.64,0-14.45.08-2.42-.76-3.43-3.18-3.16-1,.11-2-.07-3,0-2.69.29-3.7-.72-3.7-3.54s.72-3.66,3.55-3.62c6.26.11,6.26,0,6.26-6.21,0-1,0-2,0-3,0-5,.15-5,5.26-4.7,1.92.13,2.62.91,2.59,2.74-.05,2.59.17,5.2-.06,7.77-.25,2.88.94,3.64,3.62,3.48,3.45-.19,6.93.15,10.37-.1,3-.2,3.06,1.38,3.09,3.61,0,2.39-.44,3.72-3.24,3.57-3.57-.19-7.16,0-10.74-.07-2.17-.07-3.11.61-3.08,2.93.1,8.27-.1,16.55.09,24.82.17,7.29,3,9.72,10.16,9.19,1.82-.14,3.6-.81,5.42-1,1.48-.19,3.44-2.73,4.34.71.66,2.49,1.89,4.88-2.16,6a43.5,43.5,0,0,1-13.09,2.05c-7.61-.23-12.17-4.53-12.47-12.23-.19-4.93,0-9.87,0-14.81Z" transform="translate(-3.64 -2.15)"/><path class="cls-4" d="M381.66,356c.07,7.41.09,14.81.22,22.22,0,2.3-1,3-3.17,3q-13.86-.42-27.73-.73c-1.38,0-2.54-.26-2.43-2,.49-7.52-1.26-15-.46-22.52Z" transform="translate(-3.64 -2.15)"/><path class="cls-14" d="M222.08,183.07c0-10.13.16-20.27-.07-30.39-.1-4.05,2.34-3.37,4.79-3.55,2.81-.21,3.86.57,3.83,3.65-.15,17.66,0,35.32-.14,53,0,3.28,1,4.29,4.23,4.2,7.28-.21,14.57.05,21.86-.13,3.05-.07,3.36,1.41,3.4,3.87s-.61,3.76-3.52,3.72c-10.25-.16-20.51-.14-30.76,0-2.74,0-3.69-.85-3.66-3.6C222.15,203.57,222.08,193.32,222.08,183.07Z" transform="translate(-3.64 -2.15)"/><path class="cls-4" d="M311.35,356c0,6,0,12.06.06,18.09,0,2.34-.8,3.33-3.22,3.3-8.24-.08-16.49-.06-24.73,0-2.17,0-3.15-.77-3.1-3,.14-6.14.16-12.29.23-18.44Z" transform="translate(-3.64 -2.15)"/><path class="cls-13" d="M104.91,202.87c-.5-2.36,1-3.76,3.09-5,7.56-4.42,15-9,22.6-13.39,2.5-1.44,2.35-2.24,0-3.64-7.51-4.5-14.83-9.34-22.46-13.62-3-1.66-3.46-3.68-3.28-6.58.15-2.43,1-2.76,3-1.55,8.77,5.27,17.6,10.47,26.4,15.7,1.48.89,3,1.74,4.43,2.7,4.4,2.91,4.22,7.3-.34,10-9.84,5.91-19.63,11.89-29.5,17.74C105.28,207.39,104.91,207.1,104.91,202.87Z" transform="translate(-3.64 -2.15)"/><path class="cls-13" d="M181,238.76c-8.77,0-17.53-.09-26.3.05-2.56,0-3.47-.71-3.41-3.35s.44-3.84,3.43-3.82q26.3.17,52.58,0c3,0,3.36,1.35,3.42,3.84.06,2.64-.88,3.36-3.43,3.33C198.49,238.68,189.72,238.76,181,238.76Z" transform="translate(-3.64 -2.15)"/><path class="cls-10" d="M263.27,482.72c1.22-10.89,4.79-14.56,17.4-17.87l95.43.07c7.86.44,14.41,2.94,17.57,11a32,32,0,0,1,1.47,6.82c-.27,1.31-.49,2.64-.81,3.94-1.84,7.39-7.75,12.41-15.51,12.44q-49.57.18-99.16,0C270.56,499,265.12,493.27,263.27,482.72Z" transform="translate(-3.64 -2.15)"/><path class="cls-7" d="M235.23,507.26l-.09-.8a3,3,0,0,1,.31.55C235.47,507.06,235.31,507.17,235.23,507.26Z" transform="translate(-3.64 -2.15)"/><path class="cls-15" d="M376.1,464.92l-95.43-.07c4.15-10.45,9.75-20.2,14.77-30.23C305.69,414.09,315.82,393.51,326,373c.53-1.06.72-2.75,2.08-2.82s1.63,1.65,2.15,2.69q18.24,36.39,36.43,72.82C369.88,452.05,373,458.5,376.1,464.92Z" transform="translate(-3.64 -2.15)"/><path class="cls-16" d="M345.54,191.37a29.88,29.88,0,0,0,0-4.44c-1-6.33,2.79-9.89,7.54-12.69,5.36-3.16,10.92-1.7,14.54,3.53,5.74,8.29,5.26,22.63-1,29.47-4.3,4.71-9.34,5.28-14.52,1.62-4.36-3.09-7.35-6.88-6.58-12.68A38.56,38.56,0,0,0,345.54,191.37Z" transform="translate(-3.64 -2.15)"/><path class="cls-16" d="M310,197.86c0,8.13-11.53,15.38-18.45,12.07-4.88-2.34-5.83-8.14-1.71-11.49,5.43-4.41,12.2-4.32,18.64-4.64C311.29,193.67,309.23,196.86,310,197.86Z" transform="translate(-3.64 -2.15)"/><path class="cls-16" d="M545.66,198.48c0,7.86-11.87,14.94-18.84,11.24-4.83-2.57-5.18-8.41-.65-11.8,3.15-2.36,6.86-3.17,10.7-3.57,1.22-.13,2.45-.2,3.66-.38C545.54,193.21,545.66,193.3,545.66,198.48Z" transform="translate(-3.64 -2.15)"/></svg>